<?xml version="1.0" encoding="utf-8"?><svg xmlns="http://www.w3.org/2000/svg" xmlns:xlink="http://www.w3.org/1999/xlink" viewBox="0 0 400 400"><circle cx="200" cy="200" r="200" fill="rgb(200,200,200)"></circle><path d="M 200 200 L 209.9959606205631 0.2499542646556563 A 200 200 0 1 1 105.90595145184386 23.516827918871428" fill="#24171C"></path><circle cx="209.49616258953495" cy="10.237456551422866" r="10" fill="#24171C"></circle><circle cx="110.61065387925167" cy="32.340986522927864" r="10" fill="#24171C"></circle><circle cx="200" cy="200" r="180" fill="rgb(210,210,210)"></circle><path d="M 200 200 L 209.9949834900807 20.277713388035778 A 180 180 0 1 1 20.277713388035778 209.9949834900807" fill="#28332F"></path><circle cx="209.43970662952069" cy="30.26228486647824" r="10" fill="#28332F"></circle><circle cx="30.26228486647824" cy="209.43970662952066" r="10" fill="#28332F"></circle><circle cx="200" cy="200" r="160" fill="rgb(220,220,220)"></circle><path d="M 200 200 L 209.99361753201057 40.31240621568659 A 160 160 0 1 1 105.9115115082853 329.4115772770909" fill="#336957"></path><circle cx="209.36901643625993" cy="50.292880827206176" r="10" fill="#336957"></circle><circle cx="111.79204203901747" cy="321.32335369727275" r="10" fill="#336957"></circle><circle cx="200" cy="200" r="140" fill="rgb(230,230,230)"></circle><path d="M 200 200 L 209.99162536900877 60.35700009493718 A 140 140 0 0 1 268.49779050358404 322.09853683041047" fill="#43D86F"></path><circle cx="209.277937842651" cy="70.33150008815593" r="10" fill="#43D86F"></circle><circle cx="263.6050911818995" cy="313.37721277109546" r="10" fill="#43D86F"></circle><circle cx="200" cy="200" r="120" fill="rgb(240,240,240)"></circle><path d="M 200 200 L 209.98855642862728 80.41643616084973 A 120 120 0 0 1 313.3425733111765 160.586029441319" fill="#A4FF5F"></path><circle cx="209.15617672624168" cy="90.38173314744559" r="10" fill="#A4FF5F"></circle><circle cx="303.8973588685785" cy="163.87052698787576" r="10" fill="#A4FF5F"></circle><circle cx="200" cy="200" r="100" fill="#FFF"></circle></svg>
